<svg width="64" height="64" viewBox="0 0 64 64" xmlns="http://www.w3.org/2000/svg">
  <defs>
    <linearGradient id="deezerGradient" x1="0%" y1="0%" x2="100%" y2="100%">
      <stop offset="0%" style="stop-color:#FF6600;stop-opacity:1" />
      <stop offset="100%" style="stop-color:#FF9933;stop-opacity:1" />
    </linearGradient>
  </defs>
  
  <!-- Background circle -->
  <circle cx="32" cy="32" r="30" fill="url(#deezerGradient)" stroke="#FF6600" stroke-width="2"/>
  
  <!-- Musical note symbol -->
  <path d="M25 20 L25 40 Q25 44 29 44 Q33 44 33 40 Q33 38 31 38 Q29 38 29 40 L29 22 L39 20 L39 36 Q39 40 43 40 Q47 40 47 36 Q47 34 45 34 Q43 34 43 36 L43 18 L25 20 Z" 
        fill="white" opacity="0.9"/>
  
  <!-- Small decorative dots -->
  <circle cx="20" cy="25" r="2" fill="white" opacity="0.7"/>
  <circle cx="44" cy="25" r="2" fill="white" opacity="0.7"/>
  <circle cx="20" cy="40" r="2" fill="white" opacity="0.7"/>
  <circle cx="48" cy="45" r="2" fill="white" opacity="0.7"/>
</svg>